<svg width="1255" height="442" viewBox="0 0 1255 442" fill="none" xmlns="http://www.w3.org/2000/svg"><circle cx="167" cy="93" r="50" fill="url(#a)"/><path d="M166.987 125c-.9 0-1.813-.243-2.606-.702l-8.285-4.925c-1.236-.701-.631-.944-.228-1.079 1.651-.58 1.987-.702 3.746-1.714.188-.108.43-.067.618.054l6.365 3.792a.775.775 0 0 0 .766 0l24.803-14.384a.8.8 0 0 0 .376-.675V76.599a.805.805 0 0 0-.39-.688l-24.789-14.37a.776.776 0 0 0-.766 0l-24.776 14.383a.787.787 0 0 0-.389.689v28.754c0 .27.147.54.389.661l6.795 3.94c3.693 1.849 5.949-.323 5.949-2.523v-28.39c0-.405.322-.715.725-.715h3.142c.39 0 .726.31.726.715v28.404c0 4.938-2.686 7.772-7.346 7.772-1.437 0-2.565 0-5.707-1.565l-6.5-3.765a5.253 5.253 0 0 1-2.605-4.547V76.599c0-1.862.994-3.616 2.605-4.547l24.776-14.384c1.572-.89 3.653-.89 5.211 0l24.803 14.397A5.252 5.252 0 0 1 197 76.613v28.754a5.284 5.284 0 0 1-2.605 4.547l-24.803 14.384a5.203 5.203 0 0 1-2.605.702Zm20.022-28.35c0-5.384-3.626-6.814-11.24-7.826-7.708-1.025-8.487-1.552-8.487-3.36 0-1.497.658-3.495 6.365-3.495 5.09 0 6.97 1.107 7.749 4.561a.719.719 0 0 0 .698.567h3.223c.201 0 .389-.08.524-.23a.756.756 0 0 0 .188-.553c-.497-5.95-4.432-8.716-12.382-8.716-7.077 0-11.293 2.995-11.293 8.028 0 5.452 4.203 6.963 10.984 7.637 8.125.797 8.756 1.997 8.756 3.603 0 2.78-2.229 3.967-7.453 3.967-6.567 0-8.004-1.66-8.487-4.938a.712.712 0 0 0-.712-.608h-3.209a.71.71 0 0 0-.712.716c0 4.196 2.27 9.202 13.133 9.202 7.843-.013 12.355-3.13 12.355-8.555Z" fill="#F9F9F9"/><circle cx="601" cy="50" r="50" fill="url(#b)"/><path d="M608.548 63.073a67.377 67.377 0 0 1-5.387 6.707c5.159 5.004 9.953 7.347 12.614 5.809 2.661-1.536 3.028-6.86 1.274-13.826a67.853 67.853 0 0 1-8.501 1.31Zm-4.039.269a84.765 84.765 0 0 1-7.015 0A62.794 62.794 0 0 0 601 67.544a62.058 62.058 0 0 0 3.509-4.202Zm15.54-24.34c8.217 2.355 13.585 6.271 13.585 10.998 0 4.727-5.365 8.643-13.582 10.998 2.066 8.294 1.357 14.899-2.735 17.26-4.092 2.366-10.166-.323-16.317-6.261-6.148 5.935-12.222 8.627-16.314 6.262-4.095-2.362-4.801-8.967-2.735-17.26-8.217-2.356-13.582-6.272-13.582-10.999s5.365-8.643 13.582-10.998c-2.066-8.294-1.356-14.899 2.735-17.264 4.092-2.362 10.166.327 16.314 6.265 6.151-5.938 12.225-8.627 16.317-6.265 4.092 2.365 4.801 8.97 2.735 17.264h-.003Zm-3-.765c1.757-6.968 1.387-12.29-1.274-13.829-2.661-1.535-7.455.808-12.61 5.812a67.55 67.55 0 0 1 5.383 6.707c3.016.277 5.871.721 8.501 1.31Zm-32.098 23.526c-1.754 6.968-1.387 12.29 1.277 13.826 2.661 1.535 7.455-.805 12.611-5.81a67.374 67.374 0 0 1-5.384-6.709 67.476 67.476 0 0 1-8.501-1.31l-.003.003Zm12.543-25.105a84.852 84.852 0 0 1 7.015 0A63.371 63.371 0 0 0 601 32.456a63.588 63.588 0 0 0-3.506 4.202Zm-4.039.269a67.336 67.336 0 0 1 5.384-6.707c-5.156-5.004-9.95-7.347-12.608-5.812-2.661 1.539-3.031 6.864-1.274 13.83a68.4 68.4 0 0 1 8.498-1.311Zm13.382 23.186A78.231 78.231 0 0 0 612.68 50a78.205 78.205 0 0 0-5.837-10.113 78.23 78.23 0 0 0-11.677 0A78.225 78.225 0 0 0 589.323 50a78.471 78.471 0 0 0 5.84 10.113c3.887.29 7.79.29 11.677 0h-.003Zm3.962-.407a62.38 62.38 0 0 0 5.396-.934 63.377 63.377 0 0 0-1.887-5.14 85.078 85.078 0 0 1-3.509 6.074Zm-19.598-19.415a62.74 62.74 0 0 0-5.396.937 64.124 64.124 0 0 0 1.89 5.14 84.998 84.998 0 0 1 3.506-6.074v-.003Zm-5.396 18.481c1.696.373 3.5.688 5.396.934a85.02 85.02 0 0 1-3.506-6.074 63.78 63.78 0 0 0-1.89 5.14Zm-3.015-.755A68.435 68.435 0 0 1 585.904 50a67.461 67.461 0 0 1-3.114-8.017c-6.91 1.961-11.338 4.946-11.338 8.017 0 3.071 4.428 6.053 11.338 8.017Zm33.411-16.79a63.144 63.144 0 0 0-5.396-.936 85.042 85.042 0 0 1 3.506 6.074 64.018 64.018 0 0 0 1.89-5.137Zm3.012.756c-.801 2.572-1.85 5.267-3.114 8.017 1.264 2.75 2.313 5.445 3.114 8.017 6.913-1.964 11.341-4.946 11.341-8.017 0-3.071-4.428-6.053-11.341-8.017ZM601 55.793A5.799 5.799 0 0 1 595.014 50a5.801 5.801 0 0 1 3.71-5.408A5.799 5.799 0 0 1 606.608 50 5.795 5.795 0 0 1 601 55.794Z" fill="#fff"/><circle cx="50" cy="307" r="50" fill="url(#c)"/><rect x="18.872" y="308.836" width="33.64" height="7.064" rx="3.532" transform="rotate(-50.17 18.872 308.836)" fill="#fff"/><rect x="22.997" y="304.854" width="33.64" height="7.064" rx="3.532" transform="rotate(45.018 22.997 304.854)" fill="#fff"/><rect width="33.64" height="7.064" rx="3.532" transform="scale(-1 1) rotate(-50.17 288.672 242.076)" fill="#fff"/><rect width="33.64" height="7.064" rx="3.532" transform="scale(-1 1) rotate(45.018 -406.674 58.248)" fill="#fff"/><circle cx="1170" cy="81" r="50" fill="url(#d)"/><path d="M1201.89 59.497a1.48 1.48 0 0 0-.53-.537 1.49 1.49 0 0 0-.73-.195l-14.56-.01-.02-.005-11.67-.076c-.26 0-.51.065-.73.19-.22.126-.4.307-.53.525l-3.13 5.264-3.12-5.191c-.12-.215-.3-.393-.52-.518a1.463 1.463 0 0 0-.71-.194l-11.67-.079h-.01c-.1.016-.2.042-.3.079h-14.28c-.26 0-.51.068-.74.196-.22.129-.4.313-.53.536a1.44 1.44 0 0 0-.19.731c0 .257.07.509.2.73l30.62 52.5c.13.221.31.403.53.531a1.481 1.481 0 0 0 1.46 0c.22-.128.4-.31.53-.531l30.63-52.485c.12-.222.19-.473.19-.73.01-.257-.06-.509-.19-.731Zm-37.09 2.164 3.95 6.589a1.45 1.45 0 0 0 1.25.708c.26 0 .5-.066.72-.192.22-.125.41-.305.53-.522l3.95-6.65 8.25.058-8.76 14.341-4.69 7.665-13.43-22.053 8.23.056Zm5.2 48.154-28.09-48.148h11.23l15.61 25.55c.12.166.26.307.43.414.04.029.06.076.11.099.32.185.71.236 1.08.14.36-.095.68-.328.88-.65l15.61-25.547 11.23.005-28.09 48.137Z" fill="#FCFCFC"/><circle cx="1205" cy="392" r="50" fill="url(#e)"/><path d="m1183.12 369.391 2.36 26.412h30.27l-1.01 11.328-9.75 2.636-9.73-2.632-.65-7.274h-8.77l1.26 14.022 17.89 4.969 17.91-4.969 2.4-26.813h-31.83l-.8-8.944h33.42l.79-8.735h-43.76Z" fill="#fff"/><path d="M1205 369.391h-21.88l2.36 26.412H1205v-8.733h-11.53l-.8-8.944H1205v-8.735Zm0 40.372-.01.004-9.73-2.632-.65-7.274h-8.77l1.26 14.022 17.89 4.969.01-.004v-9.085Z" fill="#EBEBEB"/><defs><linearGradient id="a" x1="192" y1="105" x2="167" y2="143" gradientUnits="userSpaceOnUse"><stop stop-color="#FF0C0C"/><stop offset="1" stop-color="#FA12FF"/></linearGradient><linearGradient id="b" x1="626" y1="62" x2="601" y2="100" gradientUnits="userSpaceOnUse"><stop stop-color="#FF0C0C"/><stop offset="1" stop-color="#FA12FF"/></linearGradient><linearGradient id="c" x1="75" y1="319" x2="50" y2="357" gradientUnits="userSpaceOnUse"><stop stop-color="#FF0C0C"/><stop offset="1" stop-color="#FA12FF"/></linearGradient><linearGradient id="d" x1="1195" y1="93" x2="1170" y2="131" gradientUnits="userSpaceOnUse"><stop stop-color="#FF0C0C"/><stop offset="1" stop-color="#FA12FF"/></linearGradient><linearGradient id="e" x1="1230" y1="404" x2="1205" y2="442" gradientUnits="userSpaceOnUse"><stop stop-color="#FF0C0C"/><stop offset="1" stop-color="#FA12FF"/></linearGradient></defs></svg>