<svg width="1440" height="657" viewBox="0 0 1440 657" fill="none" xmlns="http://www.w3.org/2000/svg"><path d="M616.869 525.21c71.379 156.017-181.539 245.154-410.15 249.577-228.612 4.422-427.317-79.867-429.408-213.282-7.27-145.489 149.537-362.289 410.402-233.54S545.49 369.192 616.869 525.21Z" fill="url(#a)"/><path d="M1012.73 394.725c277.21 130.325 270.41 406.757-258.59 447.988-203.499 115.812-486.81 134.197-547.494 2.591-70.66-141.083-34.413-473.274 265.883-432.168 300.296 41.106 262.983-148.737 540.201-18.411Z" fill="url(#b)"/><path d="M1465.69 329.915c277.22 130.325 270.41 406.757-258.59 447.988-203.5 115.812-486.807 134.196-547.491 2.591-70.66-141.083-34.413-473.274 265.883-432.168 300.298 41.106 262.988-148.737 540.198-18.411Z" fill="url(#c)"/><defs><linearGradient id="a" x1="199.196" y1="270.538" x2="208.95" y2="774.744" gradientUnits="userSpaceOnUse"><stop stop-color="#C21487"/><stop offset="1" stop-color="#C21111"/></linearGradient><linearGradient id="b" x1="518.703" y1="315.642" x2="847.751" y2="893.829" gradientUnits="userSpaceOnUse"><stop stop-color="#C21487"/><stop offset="1" stop-color="#C21111"/></linearGradient><linearGradient id="c" x1="971.666" y1="250.832" x2="1300.71" y2="829.019" gradientUnits="userSpaceOnUse"><stop stop-color="#C21487"/><stop offset="1" stop-color="#C21111"/></linearGradient></defs></svg>