<svg width="495" height="52" viewBox="0 0 495 52" fill="none" xmlns="http://www.w3.org/2000/svg">
<path d="M0 15C0 6.71573 6.71573 0 15 0H480C488.284 0 495 6.71573 495 15V52H0V15Z" fill="url(#paint0_linear_0_1)"/>
<path d="M35.793 16.2928C35.9805 16.1053 36.2348 16 36.5 16C36.7652 16 37.0195 16.1053 37.207 16.2928L41.707 20.7928C41.8945 20.9803 41.9998 21.2346 41.9998 21.4998C41.9998 21.765 41.8945 22.0193 41.707 22.2068L37.207 26.7068C37.0184 26.8889 36.7658 26.9897 36.5036 26.9875C36.2414 26.9852 35.9906 26.88 35.8052 26.6946C35.6198 26.5092 35.5146 26.2584 35.5123 25.9962C35.51 25.734 35.6108 25.4814 35.793 25.2928L38.5 22.4998H29C28.7348 22.4998 28.4804 22.3944 28.2929 22.2069C28.1054 22.0194 28 21.765 28 21.4998C28 21.2346 28.1054 20.9802 28.2929 20.7927C28.4804 20.6051 28.7348 20.4998 29 20.4998H38.5L35.793 17.7068C35.6055 17.5193 35.5002 17.265 35.5002 16.9998C35.5002 16.7346 35.6055 16.4803 35.793 16.2928Z" fill="white"/>
<path d="M12.2068 16.2928C12.0192 16.1053 11.7649 16 11.4998 16C11.2346 16 10.9803 16.1053 10.7928 16.2928L6.29276 20.7928C6.10528 20.9803 5.99997 21.2346 5.99997 21.4998C5.99997 21.765 6.10528 22.0193 6.29276 22.2068L10.7928 26.7068C10.9814 26.8889 11.234 26.9897 11.4962 26.9875C11.7584 26.9852 12.0092 26.88 12.1946 26.6946C12.38 26.5092 12.4852 26.2584 12.4874 25.9962C12.4897 25.734 12.3889 25.4814 12.2068 25.2928L9.49976 22.4998H18.9998C19.265 22.4998 19.5193 22.3944 19.7069 22.2069C19.8944 22.0194 19.9998 21.765 19.9998 21.4998C19.9998 21.2346 19.8944 20.9802 19.7069 20.7927C19.5193 20.6051 19.265 20.4998 18.9998 20.4998H9.49976L12.2068 17.7068C12.3942 17.5193 12.4995 17.265 12.4995 16.9998C12.4995 16.7346 12.3942 16.4803 12.2068 16.2928Z" fill="white"/>
<path d="M62.9414 22.9115C62.7762 24.1712 62.2711 25.3621 61.4802 26.3566C60.6894 27.3511 59.6427 28.1117 58.4524 28.5567C57.262 29.0017 55.973 29.1143 54.7235 28.8826C53.474 28.6508 52.3112 28.0834 51.3597 27.2412C50.4082 26.399 49.7041 25.3137 49.3227 24.1018C48.9413 22.8899 48.8971 21.597 49.1948 20.3619C49.4925 19.1268 50.121 17.996 51.0127 17.0908C51.9044 16.1856 53.0258 15.5401 54.2565 15.2236C57.6684 14.3488 61.2001 16.1045 62.5039 19.3764" stroke="#FFFBFB" stroke-width="2" stroke-linecap="round" stroke-linejoin="round"/>
<path d="M63 15.0023V19.3764H58.6248" stroke="#FFFBFB" stroke-width="2" stroke-linecap="round" stroke-linejoin="round"/>
<circle cx="411.5" cy="21.5" r="8.5" fill="#6AD2FF"/>
<circle cx="433.5" cy="21.5" r="8.5" fill="#FF8C04"/>
<circle cx="455.5" cy="21.5" r="8.5" fill="#66FFAC"/>
<circle cx="477.5" cy="21.5" r="8.5" fill="#FFD089"/>
<rect x="96" y="9" width="299" height="25" rx="10" fill="#3D3D3D"/>
<path d="M74.75 27.2222H77.375V21.8889H82.625V27.2222H85.25V19.2222L80 15.2222L74.75 19.2222V27.2222ZM73 29V18.3333L80 13L87 18.3333V29H80.875V23.6667H79.125V29H73Z" fill="white"/>
<defs>
<linearGradient id="paint0_linear_0_1" x1="247.5" y1="0" x2="247.5" y2="52" gradientUnits="userSpaceOnUse">
<stop stop-color="#5F5F5F"/>
</linearGradient>
</defs>
</svg>
